<svg width="1262" height="347" viewBox="0 0 1262 347" fill="none" xmlns="http://www.w3.org/2000/svg">
<g clip-path="url(#clip0_1_365)">
<g clip-path="url(#clip1_1_365)">
<rect width="1261.9" height="346.973" rx="21" fill="url(#paint0_linear_1_365)"/>
</g>
<g clip-path="url(#clip2_1_365)">
<path d="M-65.918 273.807C-49.3618 288.854 -32.4487 303.398 -15.1432 317.439C-17.4982 339.704 -19.2466 362.04 -20.3884 384.449C1.87688 383.3 24.0708 381.54 46.1933 379.17C60.1448 396.587 74.6315 413.644 89.5463 430.271C104.497 413.609 118.948 396.587 132.899 379.17C155.022 381.54 177.216 383.3 199.481 384.449C198.339 362.04 196.591 339.704 194.236 317.439C211.541 303.398 228.49 288.818 245.011 273.807C228.454 258.76 211.541 244.216 194.236 230.175C196.591 207.91 198.339 185.574 199.481 163.165C177.216 164.315 155.022 166.074 132.899 168.444C118.984 150.992 104.497 133.97 89.582 117.307C74.6315 133.97 60.1805 150.992 46.229 168.408C24.1065 166.038 1.91257 164.279 -20.3527 163.13C-19.2109 185.538 -17.4625 207.875 -15.1075 230.139C-32.4487 244.216 -49.3618 258.76 -65.918 273.807ZM60.8584 285.765C60.787 285.694 60.68 285.658 60.6086 285.586C60.787 285.622 60.9655 285.622 61.1439 285.658C61.0368 285.801 60.9298 285.945 60.8227 286.089C60.8227 285.981 60.8227 285.873 60.8584 285.765ZM60.8584 261.813C60.8584 261.705 60.8227 261.597 60.8227 261.49C60.9298 261.633 61.0368 261.777 61.1439 261.921C60.9655 261.956 60.787 261.957 60.6086 261.992C60.68 261.957 60.7514 261.885 60.8584 261.813ZM77.6644 244.899C77.7358 244.827 77.7715 244.719 77.8428 244.647C77.8071 244.827 77.8071 245.007 77.7714 245.186C77.6287 245.078 77.486 244.971 77.3433 244.863C77.486 244.863 77.5574 244.863 77.6644 244.899ZM101.464 244.899C101.571 244.899 101.678 244.863 101.785 244.863C101.642 244.971 101.5 245.078 101.357 245.186C101.321 245.007 101.321 244.827 101.286 244.647C101.357 244.719 101.428 244.791 101.464 244.899ZM118.306 261.813C118.377 261.885 118.484 261.921 118.555 261.992C118.377 261.957 118.199 261.956 118.02 261.921C118.127 261.777 118.234 261.633 118.341 261.49C118.341 261.633 118.306 261.705 118.306 261.813ZM118.306 285.765C118.306 285.873 118.341 285.981 118.341 286.089C118.234 285.945 118.127 285.801 118.02 285.658C118.199 285.622 118.377 285.622 118.555 285.586C118.484 285.658 118.377 285.73 118.306 285.765ZM101.464 302.715C101.393 302.787 101.357 302.895 101.286 302.967C101.321 302.787 101.321 302.608 101.357 302.428C101.5 302.536 101.642 302.644 101.785 302.751C101.678 302.751 101.571 302.715 101.464 302.715ZM77.6644 302.715C77.5574 302.715 77.4503 302.751 77.3433 302.751C77.486 302.644 77.6287 302.536 77.7714 302.428C77.8071 302.608 77.8071 302.787 77.8428 302.967C77.8071 302.895 77.7358 302.787 77.6644 302.715ZM76.1301 279.409C66.7102 278.26 57.2903 277.111 47.906 275.926C47.014 275.208 46.0863 274.525 45.1942 273.807C46.0863 273.089 47.014 272.407 47.906 271.688C57.3259 270.503 66.7459 269.318 76.1301 268.205C70.2783 260.7 64.4266 253.158 58.6105 245.617C58.4678 244.468 58.325 243.319 58.1823 242.205C59.3241 242.349 60.4659 242.493 61.572 242.636C69.0652 248.49 76.5583 254.379 84.0157 260.269C85.1575 250.788 86.2993 241.308 87.4768 231.863C88.1904 230.965 88.8684 230.032 89.582 229.134C90.2957 230.032 90.9736 230.965 91.6872 231.863C92.8647 241.344 94.0422 250.824 95.1483 260.269C102.606 254.379 110.099 248.49 117.592 242.636C118.734 242.493 119.876 242.349 120.982 242.205C120.839 243.355 120.696 244.504 120.554 245.617C114.737 253.158 108.886 260.7 103.034 268.205C112.454 269.354 121.874 270.503 131.258 271.688C132.15 272.407 133.078 273.089 133.97 273.807C133.078 274.525 132.15 275.208 131.258 275.926C121.838 277.111 112.418 278.296 103.034 279.409C108.886 286.915 114.737 294.456 120.554 301.997C120.696 303.146 120.839 304.296 120.982 305.409C119.84 305.265 118.698 305.121 117.592 304.978C110.099 299.124 102.606 293.235 95.1483 287.346C94.0065 296.826 92.8647 306.307 91.6872 315.751C90.9736 316.649 90.2957 317.583 89.582 318.48C88.8684 317.583 88.1904 316.649 87.4768 315.751C86.2993 306.271 85.1218 296.79 84.0157 287.346C76.5583 293.235 69.0652 299.124 61.572 304.978C60.4302 305.121 59.2884 305.265 58.1823 305.409C58.325 304.26 58.4678 303.11 58.6105 301.997C64.4266 294.456 70.2783 286.915 76.1301 279.409ZM24.3562 273.807C31.885 279.804 39.4495 285.694 47.0854 291.511C45.7651 301.064 44.552 310.616 43.4458 320.204C52.9728 319.091 62.4641 317.87 71.9554 316.541C77.7358 324.226 83.5875 331.875 89.5463 339.416C95.5051 331.875 101.357 324.226 107.137 316.541C116.629 317.87 126.12 319.091 135.647 320.204C134.541 310.616 133.328 301.064 132.007 291.511C139.643 285.694 147.243 279.804 154.736 273.807C147.243 267.81 139.643 261.921 132.007 256.103C133.328 246.551 134.541 236.998 135.647 227.41C126.12 228.523 116.629 229.744 107.137 231.073C101.357 223.388 95.5051 215.739 89.5463 208.198C83.5875 215.775 77.7358 223.388 71.9554 231.073C62.4641 229.744 52.9728 228.523 43.4458 227.41C44.552 236.998 45.7651 246.551 47.0854 256.103C39.4495 261.885 31.8493 267.81 24.3562 273.807ZM0.413948 310.975C-14.715 298.945 -29.5228 286.556 -44.0809 273.807C-29.5228 261.059 -14.715 248.669 0.413948 236.639C-1.83399 217.355 -3.61806 198.035 -4.93828 178.679C14.2941 180.008 33.4907 181.803 52.6517 184.066C64.605 168.839 76.9151 153.936 89.582 139.285C102.249 153.936 114.559 168.839 126.512 184.066C145.673 181.803 164.87 180.008 184.102 178.679C182.782 198.035 180.998 217.355 178.75 236.639C193.879 248.669 208.687 261.059 223.245 273.807C208.687 286.556 193.879 298.945 178.75 310.975C180.998 330.259 182.782 349.579 184.102 368.935C164.87 367.607 145.673 365.811 126.512 363.549C114.559 378.775 102.249 393.678 89.582 408.33C76.9151 393.678 64.605 378.775 52.6517 363.549C33.4907 365.811 14.2941 367.607 -4.93828 368.935C-3.61806 349.543 -1.83399 330.223 0.413948 310.975Z" fill="url(#paint1_linear_1_365)" fill-opacity="0.3"/>
<path d="M-20.1029 273.807C-20.0672 276.931 -19.0325 280.056 -16.9986 282.569C-16.8202 282.821 -16.6061 283.108 -16.3563 283.359C-16.1066 283.611 -15.8568 283.826 -15.5714 284.006C-10.3262 288.243 -2.51192 288.351 2.44781 283.359C4.94551 280.846 6.26573 277.326 6.37277 273.807C6.26573 270.252 4.90983 266.733 2.44781 264.255C-2.51192 259.263 -10.3262 259.371 -15.5714 263.608C-15.8211 263.788 -16.1066 264.003 -16.3563 264.255C-16.6061 264.506 -16.8202 264.758 -16.9986 265.045C-18.9968 267.559 -20.0672 270.683 -20.1029 273.807ZM12.0104 195.737C9.83388 197.963 8.40661 200.908 8.0498 204.14C7.97844 204.463 7.94275 204.786 7.97844 205.145C7.97844 205.504 8.01412 205.828 8.0498 206.151C8.76343 212.902 14.2584 218.504 21.252 218.54C24.7487 218.54 28.1742 216.996 30.7432 214.59C33.1696 212.004 34.6682 208.557 34.6682 205.038C34.6682 197.999 29.0662 192.469 22.3581 191.751C22.0369 191.679 21.7158 191.643 21.359 191.679C21.0022 191.679 20.6811 191.715 20.3599 191.751C17.1843 192.11 14.2227 193.582 12.0104 195.737ZM89.582 163.417C86.4778 163.453 83.3735 164.494 80.8758 166.541C80.626 166.721 80.3405 166.936 80.0908 167.187C79.841 167.439 79.6269 167.69 79.4485 167.977C75.2381 173.256 75.131 181.121 80.0908 186.113C82.5885 188.626 86.0853 189.955 89.582 190.063C93.1145 189.955 96.6113 188.59 99.0733 186.113C104.033 181.121 103.926 173.256 99.7156 167.977C99.5372 167.726 99.3231 167.439 99.0733 167.187C98.8236 166.936 98.5738 166.721 98.2883 166.541C95.7549 164.53 92.6507 163.453 89.582 163.417ZM167.118 195.737C164.906 193.546 161.98 192.11 158.768 191.751C158.447 191.679 158.126 191.643 157.769 191.679C157.413 191.679 157.091 191.715 156.77 191.751C150.062 192.469 144.496 197.999 144.46 205.038C144.46 208.557 145.995 212.004 148.385 214.59C150.954 217.032 154.38 218.54 157.876 218.54C164.87 218.54 170.365 212.902 171.079 206.151C171.15 205.828 171.186 205.504 171.15 205.145C171.15 204.786 171.114 204.463 171.079 204.14C170.722 200.944 169.295 197.963 167.118 195.737ZM199.231 273.807C199.196 270.683 198.161 267.559 196.127 265.045C195.949 264.793 195.735 264.506 195.485 264.255C195.235 264.003 194.985 263.788 194.7 263.608C189.455 259.371 181.64 259.263 176.681 264.255C174.183 266.769 172.863 270.288 172.756 273.807C172.863 277.362 174.219 280.882 176.681 283.359C181.64 288.351 189.455 288.243 194.7 284.006C194.95 283.826 195.235 283.611 195.485 283.359C195.735 283.108 195.949 282.857 196.127 282.569C198.161 280.02 199.231 276.895 199.231 273.807ZM167.118 351.842C169.295 349.615 170.722 346.67 171.079 343.438C171.15 343.115 171.186 342.792 171.15 342.433C171.15 342.074 171.114 341.751 171.079 341.427C170.365 334.676 164.87 329.074 157.876 329.038C154.38 329.038 150.954 330.582 148.385 332.988C145.959 335.574 144.46 339.021 144.46 342.541C144.46 349.579 150.062 355.109 156.77 355.828C157.091 355.9 157.413 355.935 157.769 355.9C158.126 355.9 158.447 355.864 158.768 355.828C161.98 355.469 164.906 354.032 167.118 351.842ZM89.582 384.161C92.6863 384.126 95.7906 383.084 98.2883 381.037C98.5381 380.858 98.8236 380.642 99.0733 380.391C99.3231 380.139 99.5372 379.888 99.7156 379.601C103.926 374.322 104.033 366.457 99.0733 361.466C96.5756 358.952 93.0788 357.623 89.582 357.516C86.0496 357.623 82.5528 358.988 80.0908 361.466C75.131 366.457 75.2381 374.322 79.4485 379.601C79.6269 379.852 79.841 380.139 80.0908 380.391C80.3405 380.642 80.5903 380.858 80.8758 381.037C83.3735 383.084 86.4778 384.161 89.582 384.161ZM12.0104 351.842C14.2227 354.032 17.1486 355.469 20.3599 355.828C20.6811 355.9 21.0022 355.935 21.359 355.9C21.7158 355.9 22.0369 355.864 22.3581 355.828C29.0662 355.109 34.6325 349.579 34.6682 342.541C34.6682 339.021 33.1339 335.574 30.7432 332.988C28.1742 330.546 24.7487 329.038 21.252 329.038C14.2584 329.038 8.76343 334.676 8.0498 341.427C7.97844 341.751 7.94275 342.074 7.97844 342.433C7.97844 342.792 8.01412 343.115 8.0498 343.438C8.40661 346.67 9.86956 349.615 12.0104 351.842ZM-1.47716 273.807C-2.01238 277.685 -6.7937 281.241 -10.6473 277.65C-11.7891 276.393 -12.2173 275.064 -12.1459 273.807C-12.2173 272.55 -11.7891 271.221 -10.6473 269.965C-6.7937 266.374 -1.9767 269.929 -1.47716 273.807ZM25.2126 209.024C22.1083 211.394 16.2209 210.496 16.0425 205.181C16.1138 203.493 16.7561 202.237 17.6838 201.411C18.5045 200.477 19.7533 199.83 21.4304 199.759C26.6399 199.974 27.5676 205.899 25.2126 209.024ZM89.582 182.162C85.7284 181.624 82.196 176.812 85.7641 172.933C87.013 171.784 88.3332 171.353 89.582 171.425C90.8309 171.353 92.1511 171.784 93.4 172.933C96.9681 176.812 93.4357 181.66 89.582 182.162ZM153.951 209.024C151.596 205.899 152.489 199.974 157.769 199.795C159.446 199.866 160.695 200.477 161.516 201.446C162.444 202.272 163.086 203.529 163.157 205.217C162.943 210.46 157.02 211.394 153.951 209.024ZM180.606 273.807C181.141 269.929 185.922 266.374 189.776 269.965C190.918 271.221 191.346 272.55 191.274 273.807C191.346 275.064 190.918 276.393 189.776 277.65C185.958 281.241 181.141 277.685 180.606 273.807ZM153.951 338.59C157.056 336.22 162.943 337.118 163.122 342.433C163.05 344.121 162.444 345.378 161.48 346.204C160.66 347.137 159.411 347.784 157.734 347.855C152.489 347.64 151.596 341.679 153.951 338.59ZM89.582 365.416C93.4357 365.955 96.9681 370.767 93.4 374.645C92.1511 375.794 90.8309 376.225 89.582 376.153C88.3332 376.225 87.013 375.794 85.7641 374.645C82.196 370.803 85.7284 365.955 89.582 365.416ZM25.2126 338.59C27.5676 341.715 26.6755 347.64 21.3947 347.82C19.7177 347.784 18.4688 347.137 17.6481 346.204C16.7204 345.378 16.0781 344.121 16.0068 342.433C16.2209 337.118 22.1083 336.22 25.2126 338.59Z" fill="url(#paint2_linear_1_365)" fill-opacity="0.3"/>
</g>
<g clip-path="url(#clip3_1_365)">
<path d="M455.948 7.62939e-06C465.264 8.4127 474.781 16.5443 484.519 24.3948C483.194 36.8432 482.21 49.3317 481.568 61.8604C494.096 61.2179 506.585 60.2341 519.033 58.9089C526.884 68.6467 535.036 78.1838 543.428 87.4799C551.841 78.1637 559.972 68.6467 567.823 58.9089C580.271 60.2341 592.76 61.2179 605.289 61.8604C604.646 49.3317 603.662 36.8432 602.337 24.3948C612.075 16.5443 621.612 8.39262 630.908 7.62939e-06C621.592 -8.41268 612.075 -16.5443 602.337 -24.3948C603.662 -36.8432 604.646 -49.3317 605.289 -61.8604C592.76 -61.2179 580.271 -60.2341 567.823 -58.9089C559.993 -68.6668 551.841 -78.1838 543.448 -87.5C535.036 -78.1838 526.904 -68.6668 519.053 -58.929C506.605 -60.2541 494.117 -61.238 481.588 -61.8804C482.23 -49.3518 483.214 -36.8632 484.539 -24.4149C474.781 -16.5443 465.264 -8.41268 455.948 7.62939e-06ZM527.285 6.68598C527.245 6.64583 527.185 6.62575 527.145 6.58559C527.245 6.60567 527.346 6.60567 527.446 6.62575C527.386 6.70606 527.326 6.78637 527.265 6.86668C527.265 6.80645 527.265 6.74622 527.285 6.68598ZM527.285 -6.70605C527.285 -6.76629 527.265 -6.82652 527.265 -6.88676C527.326 -6.80644 527.386 -6.72614 527.446 -6.64582C527.346 -6.62574 527.245 -6.62574 527.145 -6.60567C527.185 -6.62574 527.225 -6.66589 527.285 -6.70605ZM536.742 -16.1628C536.782 -16.203 536.802 -16.2632 536.843 -16.3034C536.822 -16.203 536.822 -16.1026 536.802 -16.0022C536.722 -16.0624 536.642 -16.1226 536.561 -16.1829C536.642 -16.1829 536.682 -16.1829 536.742 -16.1628ZM550.134 -16.1628C550.194 -16.1628 550.255 -16.1829 550.315 -16.1829C550.235 -16.1226 550.154 -16.0624 550.074 -16.0022C550.054 -16.1026 550.054 -16.203 550.034 -16.3034C550.074 -16.2632 550.114 -16.223 550.134 -16.1628ZM559.611 -6.70605C559.651 -6.66589 559.711 -6.64582 559.752 -6.60567C559.651 -6.62574 559.551 -6.62574 559.45 -6.64582C559.511 -6.72614 559.571 -6.80644 559.631 -6.88676C559.631 -6.80644 559.611 -6.76629 559.611 -6.70605ZM559.611 6.68598C559.611 6.74622 559.631 6.80645 559.631 6.86668C559.571 6.78637 559.511 6.70606 559.45 6.62575C559.551 6.60567 559.651 6.60567 559.752 6.58559C559.711 6.62575 559.651 6.6659 559.611 6.68598ZM550.134 16.1628C550.094 16.203 550.074 16.2632 550.034 16.3034C550.054 16.203 550.054 16.1026 550.074 16.0022C550.154 16.0624 550.235 16.1227 550.315 16.1829C550.255 16.1829 550.194 16.1628 550.134 16.1628ZM536.742 16.1628C536.682 16.1628 536.622 16.1829 536.561 16.1829C536.642 16.1227 536.722 16.0624 536.802 16.0022C536.822 16.1026 536.822 16.203 536.843 16.3034C536.822 16.2632 536.782 16.203 536.742 16.1628ZM535.879 3.13217C530.578 2.48968 525.278 1.84718 519.997 1.1846C519.495 0.783043 518.973 0.401566 518.471 7.62939e-06C518.973 -0.401558 519.495 -0.783035 519.997 -1.1846C525.298 -1.84718 530.598 -2.50975 535.879 -3.13217C532.586 -7.32848 529.293 -11.5449 526.021 -15.7612C525.94 -16.4037 525.86 -17.0462 525.78 -17.6687C526.422 -17.5883 527.065 -17.508 527.687 -17.4277C531.903 -14.155 536.12 -10.8622 540.316 -7.56941C540.959 -12.87 541.601 -18.1706 542.264 -23.4511C542.665 -23.9531 543.047 -24.4751 543.448 -24.9771C543.85 -24.4751 544.231 -23.9531 544.633 -23.4511C545.295 -18.1505 545.958 -12.8499 546.58 -7.56941C550.777 -10.8622 554.993 -14.155 559.209 -17.4277C559.852 -17.508 560.494 -17.5883 561.117 -17.6687C561.037 -17.0262 560.956 -16.3837 560.876 -15.7612C557.603 -11.5449 554.31 -7.32848 551.018 -3.13217C556.318 -2.48967 561.619 -1.84718 566.899 -1.1846C567.401 -0.783035 567.923 -0.401558 568.425 7.62939e-06C567.923 0.401566 567.401 0.783043 566.899 1.1846C561.599 1.84718 556.298 2.50975 551.018 3.13217C554.31 7.32848 557.603 11.5449 560.876 15.7612C560.956 16.4037 561.037 17.0462 561.117 17.6687C560.474 17.5883 559.832 17.508 559.209 17.4277C554.993 14.155 550.777 10.8622 546.58 7.56941C545.938 12.87 545.295 18.1706 544.633 23.4511C544.231 23.9531 543.85 24.4751 543.448 24.9771C543.047 24.4751 542.665 23.9531 542.264 23.4511C541.601 18.1505 540.938 12.8499 540.316 7.56941C536.12 10.8622 531.903 14.155 527.687 17.4277C527.044 17.508 526.402 17.5883 525.78 17.6687C525.86 17.0262 525.94 16.3837 526.021 15.7612C529.293 11.5449 532.586 7.32848 535.879 3.13217ZM506.746 7.62939e-06C510.982 3.35303 515.239 6.64582 519.535 9.89846C518.792 15.2392 518.11 20.58 517.487 25.9408C522.848 25.3184 528.189 24.6357 533.53 23.8928C536.782 28.1895 540.075 32.4662 543.428 36.6825C546.781 32.4662 550.074 28.1895 553.327 23.8928C558.667 24.6357 564.008 25.3184 569.369 25.9408C568.747 20.58 568.064 15.2392 567.321 9.89846C571.618 6.64582 575.894 3.35303 580.111 7.62939e-06C575.894 -3.35303 571.618 -6.64582 567.321 -9.89846C568.064 -15.2392 568.747 -20.58 569.369 -25.9408C564.008 -25.3184 558.667 -24.6357 553.327 -23.8928C550.074 -28.1895 546.781 -32.4662 543.428 -36.6825C540.075 -32.4461 536.782 -28.1895 533.53 -23.8928C528.189 -24.6357 522.848 -25.3184 517.487 -25.9408C518.11 -20.58 518.792 -15.2392 519.535 -9.89846C515.239 -6.6659 510.962 -3.35303 506.746 7.62939e-06ZM493.273 20.7807C484.76 14.0546 476.428 7.1277 468.236 7.62939e-06C476.428 -7.12769 484.76 -14.0546 493.273 -20.7807C492.008 -31.5626 491.004 -42.3646 490.262 -53.1867C501.084 -52.4438 511.886 -51.4399 522.667 -50.175C529.394 -58.688 536.321 -67.0204 543.448 -75.2123C550.576 -67.0204 557.503 -58.688 564.229 -50.175C575.011 -51.4399 585.813 -52.4438 596.635 -53.1867C595.892 -42.3646 594.888 -31.5626 593.623 -20.7807C602.136 -14.0546 610.469 -7.12769 618.66 7.62939e-06C610.469 7.1277 602.136 14.0546 593.623 20.7807C594.888 31.5626 595.892 42.3646 596.635 53.1867C585.813 52.4438 575.011 51.4399 564.229 50.175C557.503 58.688 550.576 67.0204 543.448 75.2122C536.321 67.0204 529.394 58.688 522.667 50.175C511.886 51.4399 501.084 52.4438 490.262 53.1867C491.004 42.3445 492.008 31.5426 493.273 20.7807Z" fill="url(#paint3_linear_1_365)" fill-opacity="0.3"/>
<path d="M481.729 -1.90735e-05C481.749 1.74677 482.331 3.49355 483.475 4.89902C483.576 5.03956 483.696 5.20019 483.837 5.34074C483.977 5.48128 484.118 5.60174 484.278 5.70213C487.23 8.07133 491.627 8.13158 494.418 5.34074C495.823 3.93527 496.566 1.96763 496.626 -1.90735e-05C496.566 -1.98774 495.803 -3.95539 494.418 -5.34078C491.627 -8.13162 487.23 -8.07138 484.278 -5.70218C484.138 -5.60179 483.977 -5.48132 483.837 -5.34078C483.696 -5.20023 483.576 -5.05968 483.475 -4.89906C482.351 -3.4936 481.749 -1.74681 481.729 -1.90735e-05ZM499.799 -43.6496C498.574 -42.4048 497.771 -40.7584 497.57 -38.9514C497.53 -38.7707 497.51 -38.59 497.53 -38.3892C497.53 -38.1884 497.55 -38.0077 497.57 -37.827C497.972 -34.0523 501.064 -30.9202 504.999 -30.9001C506.967 -30.9001 508.894 -31.7634 510.34 -33.1087C511.705 -34.5543 512.548 -36.4818 512.548 -38.4494C512.548 -42.3847 509.396 -45.4767 505.621 -45.8783C505.441 -45.9185 505.26 -45.9385 505.059 -45.9185C504.858 -45.9185 504.678 -45.8984 504.497 -45.8783C502.71 -45.6775 501.044 -44.8543 499.799 -43.6496ZM543.448 -61.7198C541.702 -61.6998 539.955 -61.1175 538.549 -59.9731C538.409 -59.8727 538.248 -59.7522 538.108 -59.6117C537.967 -59.4711 537.847 -59.3306 537.746 -59.1699C535.377 -56.2185 535.317 -51.8214 538.108 -49.0305C539.513 -47.6251 541.481 -46.8822 543.448 -46.822C545.436 -46.8822 547.404 -47.6452 548.789 -49.0305C551.58 -51.8214 551.52 -56.2185 549.151 -59.1699C549.05 -59.3105 548.93 -59.4711 548.789 -59.6117C548.649 -59.7522 548.508 -59.8727 548.347 -59.9731C546.922 -61.0974 545.175 -61.6998 543.448 -61.7198ZM587.078 -43.6496C585.833 -44.8744 584.187 -45.6775 582.38 -45.8783C582.199 -45.9185 582.018 -45.9385 581.817 -45.9185C581.617 -45.9185 581.436 -45.8984 581.255 -45.8783C577.481 -45.4767 574.348 -42.3847 574.328 -38.4494C574.328 -36.4818 575.192 -34.5543 576.537 -33.1087C577.983 -31.7434 579.91 -30.9001 581.878 -30.9001C585.813 -30.9001 588.905 -34.0523 589.307 -37.827C589.347 -38.0077 589.367 -38.1884 589.347 -38.3892C589.347 -38.59 589.327 -38.7707 589.307 -38.9514C589.106 -40.7383 588.303 -42.4048 587.078 -43.6496ZM605.148 -1.90735e-05C605.128 -1.74681 604.546 -3.4936 603.401 -4.89906C603.301 -5.03961 603.18 -5.20023 603.04 -5.34078C602.899 -5.48132 602.759 -5.60179 602.598 -5.70218C599.647 -8.07138 595.25 -8.13162 592.459 -5.34078C591.053 -3.93532 590.31 -1.96766 590.25 -1.90735e-05C590.31 1.98771 591.073 3.95535 592.459 5.34074C595.25 8.13158 599.647 8.07133 602.598 5.70213C602.739 5.60174 602.899 5.48128 603.04 5.34074C603.18 5.20019 603.301 5.05964 603.401 4.89902C604.546 3.47347 605.148 1.72669 605.148 -1.90735e-05ZM587.078 43.6295C588.303 42.3847 589.106 40.7383 589.307 38.9313C589.347 38.7506 589.367 38.5698 589.347 38.3691C589.347 38.1683 589.327 37.9876 589.307 37.8069C588.905 34.0322 585.813 30.9 581.878 30.88C579.91 30.88 577.983 31.7433 576.537 33.0886C575.172 34.5342 574.328 36.4617 574.328 38.4293C574.328 42.3646 577.481 45.4566 581.255 45.8582C581.436 45.8983 581.617 45.9184 581.817 45.8983C582.018 45.8983 582.199 45.8782 582.38 45.8582C584.187 45.6574 585.833 44.8543 587.078 43.6295ZM543.448 61.6997C545.195 61.6796 546.942 61.0974 548.347 59.9529C548.488 59.8526 548.649 59.7321 548.789 59.5915C548.93 59.451 549.05 59.3104 549.151 59.1498C551.52 56.1983 551.58 51.8013 548.789 49.0104C547.384 47.6049 545.416 46.8621 543.448 46.8018C541.461 46.8621 539.493 47.625 538.108 49.0104C535.317 51.8013 535.377 56.1983 537.746 59.1498C537.847 59.2904 537.967 59.451 538.108 59.5915C538.248 59.7321 538.389 59.8526 538.549 59.9529C539.955 61.0974 541.702 61.6997 543.448 61.6997ZM499.799 43.6295C501.044 44.8543 502.69 45.6574 504.497 45.8582C504.678 45.8983 504.858 45.9184 505.059 45.8983C505.26 45.8983 505.441 45.8782 505.621 45.8582C509.396 45.4566 512.528 42.3646 512.548 38.4293C512.548 36.4617 511.685 34.5342 510.34 33.0886C508.894 31.7233 506.967 30.88 504.999 30.88C501.064 30.88 497.972 34.0322 497.57 37.8069C497.53 37.9876 497.51 38.1683 497.53 38.3691C497.53 38.5698 497.55 38.7506 497.57 38.9313C497.771 40.7383 498.594 42.3847 499.799 43.6295ZM492.209 -1.90735e-05C491.908 2.16841 489.218 4.15613 487.049 2.14833C486.407 1.4456 486.166 0.702713 486.206 -1.90735e-05C486.166 -0.702751 486.407 -1.44564 487.049 -2.14837C489.218 -4.15617 491.928 -2.16845 492.209 -1.90735e-05ZM507.228 -36.2208C505.481 -34.8956 502.168 -35.3976 502.068 -38.3691C502.108 -39.3128 502.469 -40.0155 502.991 -40.4773C503.453 -40.9993 504.156 -41.3607 505.099 -41.4009C508.031 -41.2804 508.553 -37.9676 507.228 -36.2208ZM543.448 -51.2391C541.28 -51.5403 539.292 -54.2307 541.3 -56.3992C542.003 -57.0417 542.746 -57.2826 543.448 -57.2425C544.151 -57.2826 544.894 -57.0417 545.597 -56.3992C547.605 -54.2307 545.617 -51.5202 543.448 -51.2391ZM579.669 -36.2208C578.344 -37.9676 578.846 -41.2804 581.817 -41.3808C582.761 -41.3407 583.464 -40.9993 583.926 -40.4572C584.448 -39.9954 584.809 -39.2927 584.849 -38.349C584.729 -35.4176 581.396 -34.8956 579.669 -36.2208ZM594.667 -1.90735e-05C594.969 -2.16845 597.659 -4.15617 599.827 -2.14837C600.47 -1.44564 600.711 -0.702751 600.671 -1.90735e-05C600.711 0.702713 600.47 1.4456 599.827 2.14833C597.679 4.15613 594.969 2.16841 594.667 -1.90735e-05ZM579.669 36.2207C581.416 34.8956 584.729 35.3975 584.829 38.3691C584.789 39.3127 584.448 40.0155 583.906 40.4773C583.444 40.9993 582.741 41.3607 581.797 41.4008C578.846 41.2804 578.344 37.9474 579.669 36.2207ZM543.448 51.219C545.617 51.5202 547.605 54.2106 545.597 56.3791C544.894 57.0216 544.151 57.2625 543.448 57.2223C542.746 57.2625 542.003 57.0216 541.3 56.3791C539.292 54.2307 541.28 51.5202 543.448 51.219ZM507.228 36.2207C508.553 37.9675 508.051 41.2804 505.079 41.3808C504.136 41.3607 503.433 40.9993 502.971 40.4773C502.449 40.0155 502.088 39.3127 502.047 38.3691C502.168 35.3975 505.481 34.8956 507.228 36.2207Z" fill="url(#paint4_linear_1_365)" fill-opacity="0.3"/>
</g>
<g clip-path="url(#clip4_1_365)">
<path d="M615.042 321.307C629.203 334.094 643.668 346.454 658.47 358.387C656.456 377.309 654.96 396.291 653.984 415.335C673.027 414.358 692.01 412.863 710.931 410.849C722.864 425.65 735.255 440.147 748.011 454.277C760.799 440.116 773.159 425.65 785.092 410.849C804.013 412.863 822.996 414.358 842.039 415.335C841.063 396.291 839.567 377.309 837.553 358.387C852.355 346.454 866.851 334.064 880.981 321.307C866.82 308.52 852.355 296.16 837.553 284.227C839.567 265.306 841.063 246.323 842.039 227.279C822.996 228.256 804.013 229.751 785.092 231.766C773.189 216.934 760.799 202.468 748.042 188.307C735.255 202.468 722.895 216.934 710.962 231.735C692.04 229.721 673.058 228.225 654.014 227.249C654.991 246.292 656.486 265.275 658.5 284.197C643.668 296.16 629.203 308.52 615.042 321.307ZM723.475 331.47C723.413 331.409 723.322 331.378 723.261 331.317C723.413 331.348 723.566 331.348 723.719 331.378C723.627 331.5 723.536 331.622 723.444 331.744C723.444 331.653 723.444 331.561 723.475 331.47ZM723.475 311.114C723.475 311.022 723.444 310.931 723.444 310.839C723.536 310.961 723.627 311.083 723.719 311.205C723.566 311.236 723.413 311.236 723.261 311.267C723.322 311.236 723.383 311.175 723.475 311.114ZM737.849 296.74C737.91 296.679 737.94 296.587 738.001 296.526C737.971 296.679 737.971 296.831 737.94 296.984C737.818 296.892 737.696 296.801 737.574 296.709C737.696 296.709 737.757 296.709 737.849 296.74ZM758.205 296.74C758.296 296.74 758.388 296.709 758.479 296.709C758.357 296.801 758.235 296.892 758.113 296.984C758.083 296.831 758.083 296.679 758.052 296.526C758.113 296.587 758.174 296.648 758.205 296.74ZM772.609 311.114C772.67 311.175 772.762 311.205 772.823 311.267C772.67 311.236 772.518 311.236 772.365 311.205C772.457 311.083 772.548 310.961 772.64 310.839C772.64 310.961 772.609 311.022 772.609 311.114ZM772.609 331.47C772.609 331.561 772.64 331.653 772.64 331.744C772.548 331.622 772.457 331.5 772.365 331.378C772.518 331.348 772.67 331.348 772.823 331.317C772.762 331.378 772.67 331.439 772.609 331.47ZM758.205 345.875C758.144 345.936 758.113 346.027 758.052 346.088C758.083 345.936 758.083 345.783 758.113 345.63C758.235 345.722 758.357 345.814 758.479 345.905C758.388 345.905 758.296 345.875 758.205 345.875ZM737.849 345.875C737.757 345.875 737.666 345.905 737.574 345.905C737.696 345.814 737.818 345.722 737.94 345.63C737.971 345.783 737.971 345.936 738.001 346.088C737.971 346.027 737.91 345.936 737.849 345.875ZM736.536 326.068C728.48 325.091 720.423 324.115 712.396 323.108C711.633 322.497 710.84 321.918 710.077 321.307C710.84 320.697 711.633 320.117 712.396 319.507C720.453 318.499 728.51 317.492 736.536 316.546C731.531 310.168 726.526 303.759 721.552 297.35C721.43 296.373 721.308 295.397 721.186 294.451C722.162 294.573 723.139 294.695 724.085 294.817C730.494 299.792 736.903 304.797 743.281 309.802C744.258 301.745 745.234 293.688 746.241 285.661C746.852 284.898 747.432 284.105 748.042 283.342C748.652 284.105 749.232 284.898 749.843 285.661C750.85 293.718 751.857 301.775 752.803 309.802C759.181 304.797 765.59 299.792 771.999 294.817C772.976 294.695 773.952 294.573 774.898 294.451C774.776 295.427 774.654 296.404 774.532 297.35C769.558 303.759 764.553 310.168 759.547 316.546C767.604 317.523 775.661 318.499 783.688 319.507C784.451 320.117 785.244 320.697 786.007 321.307C785.244 321.918 784.451 322.497 783.688 323.108C775.631 324.115 767.574 325.122 759.547 326.068C764.553 332.446 769.558 338.855 774.532 345.264C774.654 346.241 774.776 347.217 774.898 348.163C773.922 348.041 772.945 347.919 771.999 347.797C765.59 342.823 759.181 337.818 752.803 332.813C751.826 340.87 750.85 348.926 749.843 356.953C749.232 357.716 748.652 358.509 748.042 359.272C747.432 358.509 746.852 357.716 746.241 356.953C745.234 348.896 744.227 340.839 743.281 332.813C736.903 337.818 730.494 342.823 724.085 347.797C723.108 347.919 722.132 348.041 721.186 348.163C721.308 347.187 721.43 346.21 721.552 345.264C726.526 338.855 731.531 332.446 736.536 326.068ZM692.254 321.307C698.693 326.404 705.163 331.409 711.694 336.353C710.565 344.471 709.528 352.589 708.581 360.737C716.73 359.791 724.848 358.753 732.966 357.624C737.91 364.155 742.915 370.656 748.011 377.065C753.108 370.656 758.113 364.155 763.057 357.624C771.175 358.753 779.293 359.791 787.441 360.737C786.495 352.589 785.458 344.471 784.329 336.353C790.86 331.409 797.36 326.404 803.769 321.307C797.36 316.211 790.86 311.205 784.329 306.261C785.458 298.144 786.495 290.026 787.441 281.877C779.293 282.823 771.175 283.861 763.057 284.99C758.113 278.459 753.108 271.959 748.011 265.55C742.915 271.989 737.91 278.459 732.966 284.99C724.848 283.861 716.73 282.823 708.581 281.877C709.528 290.026 710.565 298.144 711.694 306.261C705.163 311.175 698.663 316.211 692.254 321.307ZM671.776 352.894C658.836 342.67 646.171 332.141 633.719 321.307C646.171 310.473 658.836 299.944 671.776 289.72C669.853 273.332 668.327 256.913 667.198 240.463C683.648 241.593 700.067 243.119 716.455 245.041C726.679 232.101 737.208 219.436 748.042 206.985C758.876 219.436 769.405 232.101 779.629 245.041C796.017 243.119 812.436 241.593 828.886 240.463C827.757 256.913 826.231 273.332 824.308 289.72C837.248 299.944 849.913 310.473 862.365 321.307C849.913 332.141 837.248 342.67 824.308 352.894C826.231 369.282 827.757 385.701 828.886 402.151C812.436 401.022 796.017 399.496 779.629 397.573C769.405 410.513 758.876 423.178 748.042 435.63C737.208 423.178 726.679 410.513 716.455 397.573C700.067 399.496 683.648 401.022 667.198 402.151C668.327 385.671 669.853 369.252 671.776 352.894Z" fill="url(#paint5_linear_1_365)" fill-opacity="0.3"/>
<path d="M654.228 321.307C654.259 323.962 655.144 326.617 656.883 328.754C657.036 328.967 657.219 329.211 657.432 329.425C657.646 329.639 657.86 329.822 658.104 329.974C662.59 333.576 669.274 333.667 673.516 329.425C675.652 327.289 676.781 324.298 676.873 321.307C676.781 318.286 675.622 315.295 673.516 313.189C669.274 308.947 662.59 309.039 658.104 312.64C657.89 312.792 657.646 312.976 657.432 313.189C657.219 313.403 657.036 313.616 656.883 313.861C655.174 315.997 654.259 318.652 654.228 321.307ZM681.695 254.96C679.833 256.852 678.612 259.354 678.307 262.101C678.246 262.376 678.216 262.65 678.246 262.956C678.246 263.261 678.277 263.535 678.307 263.81C678.918 269.548 683.617 274.308 689.599 274.339C692.59 274.339 695.52 273.027 697.717 270.982C699.792 268.785 701.074 265.855 701.074 262.864C701.074 256.882 696.283 252.182 690.545 251.572C690.27 251.511 689.996 251.481 689.691 251.511C689.385 251.511 689.111 251.542 688.836 251.572C686.12 251.877 683.587 253.129 681.695 254.96ZM748.042 227.493C745.387 227.523 742.732 228.409 740.596 230.148C740.382 230.301 740.138 230.484 739.924 230.697C739.711 230.911 739.527 231.125 739.375 231.369C735.774 235.855 735.682 242.539 739.924 246.781C742.061 248.917 745.051 250.046 748.042 250.138C751.063 250.046 754.054 248.886 756.16 246.781C760.402 242.539 760.311 235.855 756.709 231.369C756.557 231.155 756.374 230.911 756.16 230.697C755.946 230.484 755.733 230.301 755.489 230.148C753.322 228.439 750.667 227.523 748.042 227.493ZM814.359 254.96C812.467 253.098 809.964 251.877 807.218 251.572C806.943 251.511 806.668 251.481 806.363 251.511C806.058 251.511 805.783 251.542 805.509 251.572C799.771 252.182 795.01 256.882 794.98 262.864C794.98 265.855 796.292 268.785 798.337 270.982C800.534 273.057 803.464 274.339 806.455 274.339C812.436 274.339 817.136 269.548 817.747 263.81C817.808 263.535 817.838 263.261 817.808 262.956C817.808 262.65 817.777 262.376 817.747 262.101C817.441 259.385 816.221 256.852 814.359 254.96ZM841.826 321.307C841.795 318.652 840.91 315.997 839.171 313.861C839.018 313.647 838.835 313.403 838.621 313.189C838.408 312.976 838.194 312.792 837.95 312.64C833.464 309.039 826.78 308.947 822.538 313.189C820.402 315.325 819.273 318.316 819.181 321.307C819.273 324.328 820.432 327.319 822.538 329.425C826.78 333.667 833.464 333.576 837.95 329.974C838.164 329.822 838.408 329.639 838.621 329.425C838.835 329.211 839.018 328.998 839.171 328.754C840.91 326.587 841.826 323.932 841.826 321.307ZM814.359 387.624C816.221 385.732 817.441 383.229 817.747 380.483C817.808 380.208 817.838 379.933 817.808 379.628C817.808 379.323 817.777 379.048 817.747 378.774C817.136 373.036 812.436 368.275 806.455 368.245C803.464 368.245 800.534 369.557 798.337 371.602C796.262 373.799 794.98 376.729 794.98 379.72C794.98 385.701 799.771 390.401 805.509 391.012C805.783 391.073 806.058 391.103 806.363 391.073C806.668 391.073 806.943 391.042 807.218 391.012C809.964 390.706 812.467 389.486 814.359 387.624ZM748.042 415.091C750.697 415.06 753.352 414.175 755.489 412.436C755.702 412.283 755.946 412.1 756.16 411.886C756.374 411.673 756.557 411.459 756.709 411.215C760.311 406.729 760.402 400.045 756.16 395.803C754.024 393.667 751.033 392.537 748.042 392.446C745.021 392.537 742.03 393.697 739.924 395.803C735.682 400.045 735.774 406.729 739.375 411.215C739.527 411.428 739.711 411.673 739.924 411.886C740.138 412.1 740.351 412.283 740.596 412.436C742.732 414.175 745.387 415.091 748.042 415.091ZM681.695 387.624C683.587 389.486 686.089 390.706 688.836 391.012C689.111 391.073 689.385 391.103 689.691 391.073C689.996 391.073 690.27 391.042 690.545 391.012C696.283 390.401 701.044 385.701 701.074 379.72C701.074 376.729 699.762 373.799 697.717 371.602C695.52 369.526 692.59 368.245 689.599 368.245C683.617 368.245 678.918 373.036 678.307 378.774C678.246 379.048 678.216 379.323 678.246 379.628C678.246 379.933 678.277 380.208 678.307 380.483C678.612 383.229 679.864 385.732 681.695 387.624ZM670.159 321.307C669.701 324.603 665.611 327.624 662.315 324.573C661.339 323.504 660.973 322.375 661.034 321.307C660.973 320.239 661.339 319.11 662.315 318.042C665.611 314.99 669.731 318.011 670.159 321.307ZM692.987 266.252C690.332 268.266 685.296 267.503 685.143 262.986C685.204 261.552 685.754 260.484 686.547 259.782C687.249 258.988 688.317 258.439 689.752 258.378C694.207 258.561 695.001 263.596 692.987 266.252ZM748.042 243.424C744.746 242.966 741.725 238.876 744.777 235.58C745.845 234.604 746.974 234.238 748.042 234.299C749.11 234.238 750.239 234.604 751.308 235.58C754.36 238.876 751.338 242.996 748.042 243.424ZM803.098 266.252C801.083 263.596 801.846 258.561 806.363 258.408C807.798 258.469 808.866 258.988 809.568 259.812C810.361 260.514 810.91 261.582 810.971 263.017C810.788 267.472 805.722 268.266 803.098 266.252ZM825.895 321.307C826.353 318.011 830.442 314.99 833.738 318.042C834.715 319.11 835.081 320.239 835.02 321.307C835.081 322.375 834.715 323.504 833.738 324.573C830.473 327.624 826.353 324.603 825.895 321.307ZM803.098 376.363C805.753 374.348 810.788 375.111 810.941 379.628C810.88 381.062 810.361 382.131 809.537 382.833C808.835 383.626 807.767 384.175 806.333 384.236C801.846 384.053 801.083 378.987 803.098 376.363ZM748.042 399.16C751.338 399.618 754.36 403.707 751.308 407.003C750.239 407.98 749.11 408.346 748.042 408.285C746.974 408.346 745.845 407.98 744.777 407.003C741.725 403.738 744.746 399.618 748.042 399.16ZM692.987 376.363C695.001 379.018 694.238 384.053 689.721 384.206C688.287 384.175 687.219 383.626 686.517 382.833C685.723 382.131 685.174 381.062 685.113 379.628C685.296 375.111 690.332 374.348 692.987 376.363Z" fill="url(#paint6_linear_1_365)" fill-opacity="0.3"/>
</g>
<rect x="86.4043" y="256.307" width="57.3906" height="3" rx="1.5" fill="white"/>
<rect x="154.1" y="256.307" width="57.3906" height="3" rx="1.5" fill="white" fill-opacity="0.6"/>
<rect x="221.795" y="256.307" width="57.3906" height="3" rx="1.5" fill="white" fill-opacity="0.6"/>
<rect x="289.491" y="256.307" width="57.3906" height="3" rx="1.5" fill="white" fill-opacity="0.6"/>
<path d="M88.2343 51.6071V60.3301H88.5393C88.5393 53.4981 89.0883 52.4611 94.7003 52.4611H98.5433V91.5621C98.5433 93.7581 97.4453 94.0021 95.5543 94.0021V94.3071H104.094V94.0021C102.142 94.0021 101.105 93.7581 101.105 91.5621V52.4611H104.948C110.499 52.4611 111.048 53.4981 111.048 60.3301H111.353V51.6071H88.2343ZM114.126 72.9571C114.126 85.2181 121.995 95.1611 134.256 95.1611C146.029 95.1611 151.763 88.4511 151.763 80.0941H150.848C150.848 87.3531 145.785 94.3071 134.256 94.3071C124.435 94.3071 117.115 86.5601 117.115 72.9571C117.115 71.9811 117.176 71.0051 117.237 70.0901H151.763V69.2361C151.763 62.1601 146.7 50.7531 133.463 50.7531C121.202 50.7531 114.126 60.6961 114.126 72.9571ZM133.463 51.6071C141.393 51.6071 148.164 55.9991 149.079 66.1251C149.201 67.8331 147.92 69.2361 146.212 69.2361H117.298C118.396 57.9511 124.557 51.6071 133.463 51.6071ZM154.536 51.9121C156.427 51.9121 157.525 52.1561 157.525 54.3521V91.5621C157.525 93.7581 156.427 94.0021 154.536 94.0021V94.3071H161.368V94.0021C159.477 94.0021 158.379 93.7581 158.379 91.5621V52.7661C159.355 55.0231 162.283 61.5501 170.64 80.5821L167.102 87.7191C165.577 90.5861 166.919 95.1611 171.372 95.1611C176.252 95.1611 177.777 90.4031 176.435 87.3531L172.897 79.3011L186.439 52.5831V91.5621C186.439 93.7581 185.402 94.0021 183.45 94.0021V94.3071H191.99V94.0021C190.099 94.0021 189.001 93.7581 189.001 91.5621V54.3521C189.001 52.1561 190.099 51.9121 191.99 51.9121V51.6071H185.951L172.47 78.2641L160.697 51.6071H154.536V51.9121ZM168.017 87.7191L171.128 81.6191C172.043 83.7541 173.019 86.0111 174.117 88.3901C176.191 93.0871 172.165 94.3071 171.372 94.3071C167.407 94.3071 167.041 89.7321 168.017 87.7191ZM194.725 51.9121C196.616 51.9121 197.714 52.1561 197.714 54.3521V85.0961C197.714 90.6471 201.313 95.1611 206.925 95.1611C211.927 95.1611 215.221 91.8671 217.234 87.8411C217.844 92.8431 219.918 95.1611 223.029 95.1611C226.872 95.1611 228.092 92.1721 228.092 90.2811H227.299C227.299 93.0871 225.347 94.3071 223.273 94.3071C221.748 94.3071 219.613 93.6361 219.613 85.5841V51.6071H214.062V51.9121C215.953 51.9121 217.051 52.1561 217.051 54.3521V78.1421C217.051 88.3291 212.232 94.3071 206.925 94.3071C202.289 94.3071 200.276 90.5251 200.276 85.9501V51.6071H194.725V51.9121ZM228.463 51.9121C230.354 51.9121 231.452 52.1561 231.452 54.3521V91.5621C231.452 93.7581 230.354 94.0021 228.463 94.0021V94.3071H237.003V94.0021C235.112 94.0021 234.014 93.7581 234.014 91.5621V54.3521C234.014 53.0711 236.088 52.4611 241.151 52.4611C244.75 52.4611 251.338 54.3521 251.338 61.6721C251.338 68.1381 247.129 72.7131 241.273 72.7131C239.321 72.7131 237.186 72.2251 234.929 71.0661L234.563 71.7371L251.765 91.7451C253.168 93.3921 255.242 94.3071 257.377 94.3071H259.329V94.0021C257.438 94.0021 256.645 93.4531 254.693 91.2571L239.626 73.6281C240.541 73.8111 241.517 73.9331 242.432 73.9331C248.654 73.9331 254.327 69.8461 254.327 61.5501C254.327 54.8401 249.203 51.6071 240.907 51.6071H228.463V51.9121ZM262.06 94.3071H270.6V94.0021C268.709 94.0021 267.611 93.7581 267.611 91.5621V61.2451C267.611 59.7811 266.452 58.6831 265.049 58.6831H262.06V58.9881C263.951 58.9881 265.049 59.1711 265.049 61.4281V91.5621C265.049 93.7581 263.951 94.0021 262.06 94.0021V94.3071ZM263.951 53.7421C264.256 55.0231 265.598 55.8161 266.879 55.5111C268.16 55.2061 268.953 53.9251 268.648 52.5831C268.343 51.3021 267.062 50.5091 265.781 50.8141C264.439 51.1191 263.646 52.4001 263.951 53.7421ZM277.322 54.3521L289.217 73.9941L277.993 92.1111C276.956 93.6361 276.102 94.0021 274.394 94.0021V94.3071H281.348V94.0021C279.457 94.0021 278.115 93.5141 279.335 91.5621L302.332 54.3521C303.552 52.4001 304.345 51.9121 306.297 51.9121V51.6071H299.343V51.9121C301.051 51.9121 302.271 52.3391 301.6 53.8641L290.742 71.4931L280.311 54.3521C279.213 52.5221 280.555 51.9121 282.446 51.9121V51.6071H273.357V51.9121C275.248 51.9121 276.102 52.4001 277.322 54.3521ZM308.108 51.9121C309.999 51.9121 311.097 52.1561 311.097 54.3521V91.5621C311.097 93.7581 309.999 94.0021 308.108 94.0021V94.3071H331.227V75.8851H330.922C330.922 92.9041 327.75 93.4531 322.138 93.4531H313.659V54.3521C313.659 52.1561 314.757 51.9121 316.648 51.9121V51.6071H308.108V51.9121ZM347.391 95.1611C355.382 95.1611 359.591 89.9761 361.848 84.3641V84.4251C361.848 91.8061 364.044 95.1611 367.887 95.1611C371.669 95.1611 372.889 92.1721 372.889 90.2811H372.096C372.096 93.0871 370.144 94.3071 368.131 94.3071C366.545 94.3071 364.41 93.6361 364.41 85.5841V62.9531C364.41 57.7071 361.421 50.7531 351.051 50.7531C345.805 50.7531 339.644 53.0101 337.326 58.4391L340.01 59.2931C341.901 53.9251 346.964 51.6071 351.234 51.6071C360.872 51.6071 361.848 58.6831 361.848 63.9901V67.2231C353.491 67.2231 335.191 68.6261 335.191 83.5711C335.191 90.7081 340.376 95.1611 347.391 95.1611ZM361.848 67.7721V72.4081C361.848 77.0441 361.055 94.3071 347.391 94.3071C341.901 94.3071 337.753 90.9521 337.753 83.5711C337.753 70.2121 353.369 67.7721 361.848 67.7721ZM375.006 51.9121C376.897 51.9121 377.995 52.1561 377.995 54.3521V91.5621C377.995 93.7581 376.897 94.0021 375.006 94.0021V94.3071H383.546V94.0021C381.655 94.0021 380.557 93.7581 380.557 91.5621V54.3521C380.557 53.0711 382.631 52.4611 387.694 52.4611C391.293 52.4611 397.881 54.3521 397.881 61.6721C397.881 68.1381 393.672 72.7131 387.816 72.7131C385.864 72.7131 383.729 72.2251 381.472 71.0661L381.106 71.7371L398.308 91.7451C399.711 93.3921 401.785 94.3071 403.92 94.3071H405.872V94.0021C403.981 94.0021 403.188 93.4531 401.236 91.2571L386.169 73.6281C387.084 73.8111 388.06 73.9331 388.975 73.9331C395.197 73.9331 400.87 69.8461 400.87 61.5501C400.87 54.8401 395.746 51.6071 387.45 51.6071H375.006V51.9121ZM87.6243 118.607V118.912C89.5153 118.912 90.6133 119.156 90.6133 121.352V158.562C90.6133 160.758 89.5153 161.002 87.6243 161.002V161.307H100.068C115.806 161.307 122.394 150.876 122.394 138.005C122.394 124.341 115.257 117.753 106.046 117.753C100.007 117.753 95.1273 121.535 93.1753 125.866V121.169C93.1753 119.766 92.0163 118.607 90.6133 118.607H87.6243ZM93.1753 130.197C93.1753 125.073 98.4823 118.607 105.802 118.607C114.525 118.607 119.405 124.89 119.405 138.005C119.405 156.976 109.035 160.453 100.312 160.453C95.2493 160.453 93.1753 159.843 93.1753 158.562V130.197ZM137.525 162.161C145.516 162.161 149.725 156.976 151.982 151.364V151.425C151.982 158.806 154.178 162.161 158.021 162.161C161.803 162.161 163.023 159.172 163.023 157.281H162.23C162.23 160.087 160.278 161.307 158.265 161.307C156.679 161.307 154.544 160.636 154.544 152.584V129.953C154.544 124.707 151.555 117.753 141.185 117.753C135.939 117.753 129.778 120.01 127.46 125.439L130.144 126.293C132.035 120.925 137.098 118.607 141.368 118.607C151.006 118.607 151.982 125.683 151.982 130.99V134.223C143.625 134.223 125.325 135.626 125.325 150.571C125.325 157.708 130.51 162.161 137.525 162.161ZM151.982 134.772V139.408C151.982 144.044 151.189 161.307 137.525 161.307C132.035 161.307 127.887 157.952 127.887 150.571C127.887 137.212 143.503 134.772 151.982 134.772ZM158.208 118.607V118.973C160.099 118.973 161.319 119.339 162.173 121.474L177.728 162.161L192.246 120.803C192.978 119.217 194.076 118.973 195.845 118.973V118.607H188.586V118.973C190.477 118.973 191.88 119.278 191.148 121.413L178.582 157.159L164.857 121.413C164.003 119.217 165.406 118.973 167.297 118.973V118.607H158.208ZM198.618 118.912C200.509 118.912 201.607 119.156 201.607 121.352V158.562C201.607 160.758 200.509 161.002 198.618 161.002V161.307H207.158V161.002C205.267 161.002 204.169 160.758 204.169 158.562V121.352C204.169 120.071 206.243 119.461 211.306 119.461C214.905 119.461 221.493 121.352 221.493 128.672C221.493 135.138 217.284 139.713 211.428 139.713C209.476 139.713 207.341 139.225 205.084 138.066L204.718 138.737L221.92 158.745C223.323 160.392 225.397 161.307 227.532 161.307H229.484V161.002C227.593 161.002 226.8 160.453 224.848 158.257L209.781 140.628C210.696 140.811 211.672 140.933 212.587 140.933C218.809 140.933 224.482 136.846 224.482 128.55C224.482 121.84 219.358 118.607 211.062 118.607H198.618V118.912ZM232.216 161.307H240.756V161.002C238.865 161.002 237.767 160.758 237.767 158.562V128.245C237.767 126.781 236.608 125.683 235.205 125.683H232.216V125.988C234.107 125.988 235.205 126.171 235.205 128.428V158.562C235.205 160.758 234.107 161.002 232.216 161.002V161.307ZM234.107 120.742C234.412 122.023 235.754 122.816 237.035 122.511C238.316 122.206 239.109 120.925 238.804 119.583C238.499 118.302 237.218 117.509 235.937 117.814C234.595 118.119 233.802 119.4 234.107 120.742ZM99.5193 229.161C107.51 229.161 111.719 223.976 113.976 218.364V218.425C113.976 225.806 116.172 229.161 120.015 229.161C123.797 229.161 125.017 226.172 125.017 224.281H124.224C124.224 227.087 122.272 228.307 120.259 228.307C118.673 228.307 116.538 227.636 116.538 219.584V196.953C116.538 191.707 113.549 184.753 103.179 184.753C97.9333 184.753 91.7723 187.01 89.4543 192.439L92.1383 193.293C94.0293 187.925 99.0923 185.607 103.362 185.607C113 185.607 113.976 192.683 113.976 197.99V201.223C105.619 201.223 87.3193 202.626 87.3193 217.571C87.3193 224.708 92.5043 229.161 99.5193 229.161ZM113.976 201.772V206.408C113.976 211.044 113.183 228.307 99.5193 228.307C94.0293 228.307 89.8813 224.952 89.8813 217.571C89.8813 204.212 105.497 201.772 113.976 201.772ZM126.524 185.607V185.912C128.415 185.912 129.513 186.156 129.513 188.352V225.562C129.513 227.758 128.415 228.002 126.524 228.002V228.307H138.968C154.706 228.307 161.294 217.876 161.294 205.005C161.294 191.341 154.157 184.753 144.946 184.753C138.907 184.753 134.027 188.535 132.075 192.866V188.169C132.075 186.766 130.916 185.607 129.513 185.607H126.524ZM132.075 197.197C132.075 192.073 137.382 185.607 144.702 185.607C153.425 185.607 158.305 191.89 158.305 205.005C158.305 223.976 147.935 227.453 139.212 227.453C134.149 227.453 132.075 226.843 132.075 225.562V197.197ZM176.425 229.161C184.416 229.161 188.625 223.976 190.882 218.364V218.425C190.882 225.806 193.078 229.161 196.921 229.161C200.703 229.161 201.923 226.172 201.923 224.281H201.13C201.13 227.087 199.178 228.307 197.165 228.307C195.579 228.307 193.444 227.636 193.444 219.584V196.953C193.444 191.707 190.455 184.753 180.085 184.753C174.839 184.753 168.678 187.01 166.36 192.439L169.044 193.293C170.935 187.925 175.998 185.607 180.268 185.607C189.906 185.607 190.882 192.683 190.882 197.99V201.223C182.525 201.223 164.225 202.626 164.225 217.571C164.225 224.708 169.41 229.161 176.425 229.161ZM190.882 201.772V206.408C190.882 211.044 190.089 228.307 176.425 228.307C170.935 228.307 166.787 224.952 166.787 217.571C166.787 204.212 182.403 201.772 190.882 201.772ZM204.039 185.607V185.912C205.93 185.912 207.028 186.156 207.028 188.352V225.562C207.028 227.758 205.93 228.002 204.039 228.002V228.307H207.028C208.431 228.307 209.59 227.148 209.59 225.745V223.915C210.688 226.05 214.348 229.161 220.326 229.161C227.219 229.161 234.417 225.806 234.417 215.924C234.417 206.591 225.023 204.029 218.679 204.395C222.766 203.419 229.903 200.613 229.903 193.964C229.903 190.365 227.463 185.607 219.96 185.607C214.226 185.607 210.993 189.755 209.59 193.781V188.169C209.59 186.766 208.431 185.607 207.028 185.607H204.039ZM209.59 199.332C209.59 194.452 211.969 186.461 220.204 186.461C224.718 186.461 226.914 189.938 226.914 194.086C226.914 198.783 223.01 202.626 214.653 204.639L214.836 205.737C215.934 205.493 217.154 205.371 218.313 205.371C224.84 205.371 231.428 208.848 231.428 216.046C231.428 225.867 226.06 228.307 220.387 228.307C213.799 228.307 209.59 223.549 209.59 220.499V199.332ZM237.16 228.307H245.7V228.002C243.809 228.002 242.711 227.758 242.711 225.562V195.245C242.711 193.781 241.552 192.683 240.149 192.683H237.16V192.988C239.051 192.988 240.149 193.171 240.149 195.428V225.562C240.149 227.758 239.051 228.002 237.16 228.002V228.307ZM239.051 187.742C239.356 189.023 240.698 189.816 241.979 189.511C243.26 189.206 244.053 187.925 243.748 186.583C243.443 185.302 242.162 184.509 240.881 184.814C239.539 185.119 238.746 186.4 239.051 187.742ZM252.422 188.352L264.317 207.994L253.093 226.111C252.056 227.636 251.202 228.002 249.494 228.002V228.307H256.448V228.002C254.557 228.002 253.215 227.514 254.435 225.562L277.432 188.352C278.652 186.4 279.445 185.912 281.397 185.912V185.607H274.443V185.912C276.151 185.912 277.371 186.339 276.7 187.864L265.842 205.493L255.411 188.352C254.313 186.522 255.655 185.912 257.546 185.912V185.607H248.457V185.912C250.348 185.912 251.202 186.4 252.422 188.352ZM280.089 206.957C280.089 219.218 286.677 229.161 298.938 229.161C311.199 229.161 317.665 219.218 317.665 206.957C317.665 194.696 311.199 184.753 298.938 184.753C286.677 184.753 280.089 194.696 280.089 206.957ZM298.938 185.607C308.759 185.607 314.676 193.354 314.676 206.957C314.676 220.56 308.759 228.307 298.938 228.307C289.117 228.307 283.078 220.56 283.078 206.957C283.078 193.354 289.117 185.607 298.938 185.607ZM320.439 185.607V205.127H320.744C320.744 186.461 320.744 186.461 332.456 186.461V225.562C332.456 227.758 331.358 228.002 329.467 228.002V228.307H338.007V228.002C336.055 228.002 335.018 227.758 335.018 225.562V186.461C346.669 186.461 346.669 186.461 346.669 205.127H346.974V185.607H320.439ZM350.642 228.307H359.182V228.002C357.291 228.002 356.193 227.758 356.193 225.562V195.245C356.193 193.781 355.034 192.683 353.631 192.683H350.642V192.988C352.533 192.988 353.631 193.171 353.631 195.428V225.562C353.631 227.758 352.533 228.002 350.642 228.002V228.307ZM352.533 187.742C352.838 189.023 354.18 189.816 355.461 189.511C356.742 189.206 357.535 187.925 357.23 186.583C356.925 185.302 355.644 184.509 354.363 184.814C353.021 185.119 352.228 186.4 352.533 187.742Z" fill="#C9AC8C"/>
</g>
<defs>
<linearGradient id="paint0_linear_1_365" x1="-3.56966e-06" y1="197.012" x2="1333.24" y2="125.785" gradientUnits="userSpaceOnUse">
<stop offset="0.671875" stop-color="#263A3D"/>
<stop offset="1" stop-color="#191919" stop-opacity="0"/>
</linearGradient>
<linearGradient id="paint1_linear_1_365" x1="-157.387" y1="69.2537" x2="245.011" y2="303.291" gradientUnits="userSpaceOnUse">
<stop offset="0.0625" stop-color="white"/>
<stop offset="1" stop-color="white" stop-opacity="0"/>
</linearGradient>
<linearGradient id="paint2_linear_1_365" x1="89.5642" y1="163.417" x2="89.5642" y2="384.161" gradientUnits="userSpaceOnUse">
<stop offset="0.0625" stop-color="white"/>
<stop offset="1" stop-color="white" stop-opacity="0"/>
</linearGradient>
<linearGradient id="paint3_linear_1_365" x1="573.681" y1="-68.3361" x2="543.428" y2="87.4799" gradientUnits="userSpaceOnUse">
<stop offset="0.0625" stop-color="white"/>
<stop offset="1" stop-color="white" stop-opacity="0"/>
</linearGradient>
<linearGradient id="paint4_linear_1_365" x1="543.438" y1="-61.7198" x2="543.438" y2="61.6997" gradientUnits="userSpaceOnUse">
<stop offset="0.0625" stop-color="white"/>
<stop offset="1" stop-color="white" stop-opacity="0"/>
</linearGradient>
<linearGradient id="paint5_linear_1_365" x1="748.011" y1="188.307" x2="748.011" y2="454.277" gradientUnits="userSpaceOnUse">
<stop offset="0.0625" stop-color="white"/>
<stop offset="1" stop-color="white" stop-opacity="0"/>
</linearGradient>
<linearGradient id="paint6_linear_1_365" x1="748.027" y1="227.493" x2="748.027" y2="415.091" gradientUnits="userSpaceOnUse">
<stop offset="0.0625" stop-color="white"/>
<stop offset="1" stop-color="white" stop-opacity="0"/>
</linearGradient>
<clipPath id="clip0_1_365">
<rect width="1261.9" height="346.973" fill="white"/>
</clipPath>
<clipPath id="clip1_1_365">
<rect width="1261.9" height="346.973" fill="white"/>
</clipPath>
<clipPath id="clip2_1_365">
<rect width="311" height="313" fill="white" transform="translate(-65.918 117.307)"/>
</clipPath>
<clipPath id="clip3_1_365">
<rect width="175" height="175" fill="white" transform="translate(455.948 -87.5)"/>
</clipPath>
<clipPath id="clip4_1_365">
<rect width="266" height="266" fill="white" transform="translate(615.042 188.307)"/>
</clipPath>
</defs>
</svg>
