<svg width="20" height="18" viewBox="0 0 20 18" fill="none" xmlns="http://www.w3.org/2000/svg">
<path d="M18 9.99933V8.29233C18 3.85033 14.521 0.131331 10.245 0.00233083C8.041 -0.0486692 5.994 0.738331 4.429 2.25833C2.862 3.77833 2 5.81733 2 7.99933V9.99933C0.897 9.99933 0 10.8963 0 11.9993V15.9993C0 17.1023 0.897 17.9993 2 17.9993H4V7.99933C4 6.36233 4.646 4.83333 5.821 3.69333C6.995 2.55333 8.556 1.95433 10.184 2.00233C13.392 2.09833 16 4.92033 16 8.29233V17.9993H18C19.103 17.9993 20 17.1023 20 15.9993V11.9993C20 10.8963 19.103 9.99933 18 9.99933Z" fill="white"/>
</svg>
